HIERARCHY
ROOT Hips
{
	OFFSET -0.294200 87.861771 4.376322
	CHANNELS 6 Xposition Yposition Zposition Zrotation Yrotation Xrotation 
	JOINT Spine
	{
		OFFSET -0.000000 8.814246 -2.080107
		CHANNELS 3 Zrotation Yrotation Xrotation
		JOINT Spine1
		{
			OFFSET -0.000000 8.844141 0.000000
			CHANNELS 3 Zrotation Yrotation Xrotation
			JOINT Spine2
			{
				OFFSET 0.000000 11.682268 0.000000
				CHANNELS 3 Zrotation Yrotation Xrotation
				JOINT Spine3
				{
					OFFSET -0.000000 11.746700 0.000000
					CHANNELS 3 Zrotation Yrotation Xrotation
					JOINT Neck
					{
						OFFSET -0.000000 17.658264 0.000000
						CHANNELS 3 Zrotation Yrotation Xrotation
						JOINT Neck1
						{
							OFFSET 0.000000 5.101515 -0.000000
							CHANNELS 3 Zrotation Yrotation Xrotation
							JOINT Head
							{
								OFFSET -0.000000 5.101515 -0.000000
								CHANNELS 3 Zrotation Yrotation Xrotation
								JOINT HeadEnd
								{
									OFFSET 0.000000 11.655085 -0.000000
									CHANNELS 3 Zrotation Yrotation Xrotation
									End Site
									{
										OFFSET 0.000000 0.000000 0.000000
									}
								}
							}
						}
					}
					JOINT RightShoulder
					{
						OFFSET -2.625389 11.175210 -0.000000
						CHANNELS 3 Zrotation Yrotation Xrotation
						JOINT RightArm
						{
							OFFSET 0.000000 10.434715 -0.000000
							CHANNELS 3 Zrotation Yrotation Xrotation
							JOINT RightForeArm
							{
								OFFSET -0.000000 29.628420 0.000000
								CHANNELS 3 Zrotation Yrotation Xrotation
								JOINT RightHand
								{
									OFFSET -0.000000 22.857611 0.000000
									CHANNELS 3 Zrotation Yrotation Xrotation
									JOINT RightHandThumb1
									{
										OFFSET -2.867323 3.959563 2.944291
										CHANNELS 3 Zrotation Yrotation Xrotation
										JOINT RightHandThumb2
										{
											OFFSET -0.000000 3.350399 0.000000
											CHANNELS 3 Zrotation Yrotation Xrotation
											JOINT RightHandThumb3
											{
												OFFSET -0.000000 3.756509 -0.000000
												CHANNELS 3 Zrotation Yrotation Xrotation
												JOINT RightHandThumb4
												{
													OFFSET -0.000000 3.147345 0.000000
													CHANNELS 3 Zrotation Yrotation Xrotation
													End Site
													{
														OFFSET 0.000000 0.000000 0.000000
													}
												}
											}
										}
									}
									JOINT RightHandIndex1
									{
										OFFSET -0.086752 10.030893 2.345280
										CHANNELS 3 Zrotation Yrotation Xrotation
										JOINT RightHandIndex2
										{
											OFFSET 0.000000 4.061090 -0.000000
											CHANNELS 3 Zrotation Yrotation Xrotation
											JOINT RightHandIndex3
											{
												OFFSET 0.000000 3.248873 -0.000000
												CHANNELS 3 Zrotation Yrotation Xrotation
												JOINT RightHandIndex4
												{
													OFFSET 0.000000 2.639709 0.000000
													CHANNELS 3 Zrotation Yrotation Xrotation
													End Site
													{
														OFFSET 0.000000 0.000000 0.000000
													}
												}
											}
										}
									}
									JOINT RightHandMiddle1
									{
										OFFSET 0.104102 9.502952 0.006768
										CHANNELS 3 Zrotation Yrotation Xrotation
										JOINT RightHandMiddle2
										{
											OFFSET 0.000000 4.568727 0.000000
											CHANNELS 3 Zrotation Yrotation Xrotation
											JOINT RightHandMiddle3
											{
												OFFSET 0.000000 3.654981 -0.000000
												CHANNELS 3 Zrotation Yrotation Xrotation
												JOINT RightHandMiddle4
												{
													OFFSET -0.000000 2.741236 0.000000
													CHANNELS 3 Zrotation Yrotation Xrotation
													End Site
													{
														OFFSET 0.000000 0.000000 0.000000
													}
												}
											}
										}
									}
									JOINT RightHandRing1
									{
										OFFSET 0.086752 8.921708 -2.267442
										CHANNELS 3 Zrotation Yrotation Xrotation
										JOINT RightHandRing2
										{
											OFFSET 0.000000 4.061090 -0.000000
											CHANNELS 3 Zrotation Yrotation Xrotation
											JOINT RightHandRing3
											{
												OFFSET -0.000000 3.654981 0.000000
												CHANNELS 3 Zrotation Yrotation Xrotation
												JOINT RightHandRing4
												{
													OFFSET -0.000000 2.741236 0.000000
													CHANNELS 3 Zrotation Yrotation Xrotation
													End Site
													{
														OFFSET 0.000000 0.000000 0.000000
													}
												}
											}
										}
									}
									JOINT RightHandPinky1
									{
										OFFSET -0.173504 7.976997 -4.467199
										CHANNELS 3 Zrotation Yrotation Xrotation
										JOINT RightHandPinky2
										{
											OFFSET -0.000000 3.350399 0.000000
											CHANNELS 3 Zrotation Yrotation Xrotation
											JOINT RightHandPinky3
											{
												OFFSET 0.000000 2.842763 0.000000
												CHANNELS 3 Zrotation Yrotation Xrotation
												JOINT RightHandPinky4
												{
													OFFSET 0.000000 2.639709 0.000000
													CHANNELS 3 Zrotation Yrotation Xrotation
													End Site
													{
														OFFSET 0.000000 0.000000 0.000000
													}
												}
											}
										}
									}
									JOINT RightForeArmEnd
									{
										OFFSET 0.000000 0.000000 0.000000
										CHANNELS 3 Zrotation Yrotation Xrotation
										End Site
										{
											OFFSET 0.000000 0.000000 0.000000
										}
									}
								}
								JOINT RightArmEnd
								{
									OFFSET 0.000000 0.000000 0.000000
									CHANNELS 3 Zrotation Yrotation Xrotation
									End Site
									{
										OFFSET 0.000000 0.000000 0.000000
									}
								}
							}
						}
					}
					JOINT LeftShoulder
					{
						OFFSET 2.625389 11.175210 0.000000
						CHANNELS 3 Zrotation Yrotation Xrotation
						JOINT LeftArm
						{
							OFFSET -0.000000 10.813635 -0.000000
							CHANNELS 3 Zrotation Yrotation Xrotation
							JOINT LeftForeArm
							{
								OFFSET -0.000000 28.724781 -0.000000
								CHANNELS 3 Zrotation Yrotation Xrotation
								JOINT LeftHand
								{
									OFFSET 0.644384 25.716167 -0.328871
									CHANNELS 3 Zrotation Yrotation Xrotation
									JOINT LeftHandThumb1
									{
										OFFSET 2.867323 3.959563 2.944291
										CHANNELS 3 Zrotation Yrotation Xrotation
										JOINT LeftHandThumb2
										{
											OFFSET 0.000000 3.350399 0.000000
											CHANNELS 3 Zrotation Yrotation Xrotation
											JOINT LeftHandThumb3
											{
												OFFSET -0.000000 3.756509 -0.000000
												CHANNELS 3 Zrotation Yrotation Xrotation
												JOINT LeftHandThumb4
												{
													OFFSET 0.000000 3.100000 0.000000
													CHANNELS 3 Zrotation Yrotation Xrotation
													End Site
													{
														OFFSET 0.000000 0.000000 0.000000
													}
												}
											}
										}
									}
									JOINT LeftHandIndex1
									{
										OFFSET 0.086752 10.030893 2.345280
										CHANNELS 3 Zrotation Yrotation Xrotation
										JOINT LeftHandIndex2
										{
											OFFSET 0.000000 4.061090 0.000000
											CHANNELS 3 Zrotation Yrotation Xrotation
											JOINT LeftHandIndex3
											{
												OFFSET -0.000000 3.248873 -0.000000
												CHANNELS 3 Zrotation Yrotation Xrotation
												JOINT LeftHandIndex4
												{
													OFFSET 0.000000 2.639709 0.000000
													CHANNELS 3 Zrotation Yrotation Xrotation
													End Site
													{
														OFFSET 0.000000 0.000000 0.000000
													}
												}
											}
										}
									}
									JOINT LeftHandMiddle1
									{
										OFFSET -0.104102 9.502952 0.006768
										CHANNELS 3 Zrotation Yrotation Xrotation
										JOINT LeftHandMiddle2
										{
											OFFSET -0.000000 4.568727 -0.000000
											CHANNELS 3 Zrotation Yrotation Xrotation
											JOINT LeftHandMiddle3
											{
												OFFSET -0.000000 3.654981 -0.000000
												CHANNELS 3 Zrotation Yrotation Xrotation
												JOINT LeftHandMiddle4
												{
													OFFSET 0.000000 2.741236 0.000000
													CHANNELS 3 Zrotation Yrotation Xrotation
													End Site
													{
														OFFSET 0.000000 0.000000 0.000000
													}
												}
											}
										}
									}
									JOINT LeftHandRing1
									{
										OFFSET -0.086752 8.921708 -2.267442
										CHANNELS 3 Zrotation Yrotation Xrotation
										JOINT LeftHandRing2
										{
											OFFSET 0.000000 4.061090 0.000000
											CHANNELS 3 Zrotation Yrotation Xrotation
											JOINT LeftHandRing3
											{
												OFFSET 0.000000 3.654981 -0.000000
												CHANNELS 3 Zrotation Yrotation Xrotation
												JOINT LeftHandRing4
												{
													OFFSET -0.000000 2.741236 -0.000000
													CHANNELS 3 Zrotation Yrotation Xrotation
													End Site
													{
														OFFSET 0.000000 0.000000 0.000000
													}
												}
											}
										}
									}
									JOINT LeftHandPinky1
									{
										OFFSET 0.173504 7.976997 -4.467199
										CHANNELS 3 Zrotation Yrotation Xrotation
										JOINT LeftHandPinky2
										{
											OFFSET -0.000000 3.350399 -0.000000
											CHANNELS 3 Zrotation Yrotation Xrotation
											JOINT LeftHandPinky3
											{
												OFFSET 0.000000 2.842763 -0.000000
												CHANNELS 3 Zrotation Yrotation Xrotation
												JOINT LeftHandPinky4
												{
													OFFSET -0.000000 2.639709 -0.000000
													CHANNELS 3 Zrotation Yrotation Xrotation
													End Site
													{
														OFFSET 0.000000 0.000000 0.000000
													}
												}
											}
										}
									}
									JOINT LeftForeArmEnd
									{
										OFFSET 0.000000 0.000000 0.000000
										CHANNELS 3 Zrotation Yrotation Xrotation
										End Site
										{
											OFFSET 0.000000 0.000000 0.000000
										}
									}
								}
								JOINT LeftArmEnd
								{
									OFFSET 0.000000 0.000000 0.000000
									CHANNELS 3 Zrotation Yrotation Xrotation
									End Site
									{
										OFFSET 0.000000 0.000000 0.000000
									}
								}
							}
						}
					}
				}
			}
		}
	}
	JOINT RightUpLeg
	{
		OFFSET -11.289943 -0.000000 0.000000
		CHANNELS 3 Zrotation Yrotation Xrotation
		JOINT RightLeg
		{
			OFFSET 0.000000 -38.200325 -0.000000
			CHANNELS 3 Zrotation Yrotation Xrotation
			JOINT RightFoot
			{
				OFFSET -0.000000 -39.900856 0.000000
				CHANNELS 3 Zrotation Yrotation Xrotation
				JOINT RightToeBase
				{
					OFFSET 0.000000 0.000000 15.261641
					CHANNELS 3 Zrotation Yrotation Xrotation
					JOINT RightToeBaseEnd
					{
						OFFSET 0.000000 0.000000 7.370709
						CHANNELS 3 Zrotation Yrotation Xrotation
						End Site
						{
							OFFSET 0.000000 0.000000 0.000000
						}
					}
				}
				JOINT RightLegEnd
				{
					OFFSET 0.000000 0.000000 0.000000
					CHANNELS 3 Zrotation Yrotation Xrotation
					End Site
					{
						OFFSET 0.000000 0.000000 0.000000
					}
				}
			}
			JOINT RightUpLegEnd
			{
				OFFSET 0.000000 0.000000 0.000000
				CHANNELS 3 Zrotation Yrotation Xrotation
				End Site
				{
					OFFSET 0.000000 0.000000 0.000000
				}
			}
		}
	}
	JOINT LeftUpLeg
	{
		OFFSET 11.315661 0.000000 0.000000
		CHANNELS 3 Zrotation Yrotation Xrotation
		JOINT LeftLeg
		{
			OFFSET 0.000000 -38.200325 -0.000000
			CHANNELS 3 Zrotation Yrotation Xrotation
			JOINT LeftFoot
			{
				OFFSET 0.000000 -39.900856 -0.000000
				CHANNELS 3 Zrotation Yrotation Xrotation
				JOINT LeftToeBase
				{
					OFFSET 0.000000 -0.000000 15.261641
					CHANNELS 3 Zrotation Yrotation Xrotation
					JOINT LeftToeBaseEnd
					{
						OFFSET -0.000000 0.000000 7.539996
						CHANNELS 3 Zrotation Yrotation Xrotation
						End Site
						{
							OFFSET 0.000000 0.000000 0.000000
						}
					}
				}
				JOINT LeftLegEnd
				{
					OFFSET 0.000000 0.000000 0.000000
					CHANNELS 3 Zrotation Yrotation Xrotation
					End Site
					{
						OFFSET 0.000000 0.000000 0.000000
					}
				}
			}
			JOINT LeftUpLegEnd
			{
				OFFSET 0.000000 0.000000 0.000000
				CHANNELS 3 Zrotation Yrotation Xrotation
				End Site
				{
					OFFSET 0.000000 0.000000 0.000000
				}
			}
		}
	}
}
MOTION
Frames: 4
Frame Time: 0.016667
-5.039314 88.806770 4.067033 0.157795 -16.933285 -7.158514 -2.425817 -0.043793 6.223028 -1.327380 -0.066669 5.150743 4.678105 -6.826079 1.975379 3.894838 -2.195094 4.678329 -12.208321 12.346728 0.557237 1.974404 10.004728 -6.223063 -1.766228 -0.020030 -16.828424 0.000000 0.000000 0.000000 84.529800 0.393938 5.283981 78.060913 -14.486030 -15.135882 0.074461 15.588957 39.239250 8.233654 15.211572 -15.213179 13.942531 -1.934051 38.462215 -0.000004 0.000000 -35.296085 -0.000037 0.000032 -24.349112 -0.000006 -0.000005 -0.000000 32.201733 17.515228 -8.413261 23.601686 0.972737 -7.181756 23.825752 1.940961 -6.517008 0.000007 0.000005 -0.000015 34.501263 7.327940 -8.299920 24.826061 -0.182310 -2.961501 25.064285 0.689611 -2.443860 0.000009 -0.000140 0.000020 44.854595 -9.172361 -5.816747 29.664921 0.665895 4.135254 29.462374 -1.002387 3.182869 -0.000002 -0.001659 0.000007 49.723206 -24.655842 -5.073969 29.698696 0.020593 12.405145 29.405209 -3.295822 10.450788 0.000344 0.000023 -0.000030 0.000000 0.000000 0.000000 0.000000 0.000000 0.000000 -81.128166 -2.299914 12.296672 -48.900089 -4.039512 21.823782 -0.797885 -22.009300 99.954536 3.265523 18.795191 -2.017419 -10.427480 1.846571 39.925915 0.000021 0.000024 -25.516104 0.000065 -0.000027 -17.597885 -0.001732 -0.000011 -0.000354 -10.022026 17.684830 -4.548123 -8.090143 0.162915 4.538797 -8.370975 1.131279 4.126622 0.000014 0.000167 0.000019 -13.858861 7.220139 -6.371510 -9.902495 -0.537980 1.918434 -9.680317 0.378530 1.630901 0.000426 -0.000045 0.000075 -27.973942 -9.329180 -6.989297 -18.001059 1.147444 -3.015310 -17.678730 -0.613658 -2.238647 -0.001308 0.000012 -0.000003 -35.118889 -26.484867 -10.154809 -21.888058 1.664100 -8.933699 -21.441750 -1.912407 -7.171961 0.000556 0.000004 -0.000042 0.000000 0.000000 0.000000 0.000000 0.000000 0.000000 -1.207204 13.681899 -2.571394 -0.177054 -0.684045 15.138457 -2.866682 6.302395 21.119959 -0.282858 0.729550 -22.052959 0.000000 0.000000 0.000000 0.000000 0.000000 0.000000 0.000000 0.000000 0.000000 5.450676 15.357087 10.163750 0.178194 0.802204 12.143709 -3.439571 18.998846 18.996960 0.405805 -1.129520 -22.367626 0.000000 0.000000 0.000000 0.000000 0.000000 0.000000 0.000000 0.000000 0.000000 
-5.123353 88.856064 4.037661 0.128404 -16.369064 -7.078825 -2.433051 -0.064858 6.227244 -1.518776 -0.038402 5.239860 4.836304 -7.175405 1.849805 3.943857 -2.331657 4.716785 -12.245955 12.213205 0.489381 1.942025 9.893092 -6.211041 -1.715910 -0.028020 -16.696257 0.000000 0.000000 0.000000 84.359558 0.409344 5.240070 78.078621 -14.119788 -15.148746 0.079551 15.748353 38.832157 8.292560 15.362131 -15.185620 13.902596 -1.941776 38.465439 -0.000005 0.000001 -35.204952 -0.000036 0.000033 -24.290773 -0.000006 -0.000005 -0.000000 32.001091 17.465118 -8.567304 23.401194 0.935137 -7.079905 23.638151 1.902960 -6.425646 0.000006 0.000005 -0.000016 34.316963 7.301366 -8.439505 24.613134 -0.197451 -2.922051 24.853275 0.677171 -2.410970 0.000010 -0.000138 0.000020 44.645618 -9.141296 -5.922572 29.472681 0.689440 4.080835 29.271734 -0.984191 3.141444 -0.000002 -0.001617 0.000008 49.541126 -24.602539 -5.210484 29.523542 0.089650 12.249767 29.225996 -3.235564 10.323539 0.000350 0.000023 -0.000028 0.000000 0.000000 0.000000 0.000000 0.000000 0.000000 -80.757156 -2.340782 12.608516 -47.588539 -2.404894 22.754118 -0.806381 -21.795456 98.794403 3.171501 19.683935 -2.532939 -10.303371 1.838140 39.979946 0.000022 0.000024 -25.199619 0.000074 -0.000027 -17.363188 -0.001647 -0.000012 -0.000444 -9.280900 17.670389 -4.737240 -7.789116 0.132378 4.421913 -8.068192 1.101078 4.024507 0.000014 0.000007 0.000019 -13.110293 7.216982 -6.568751 -9.567635 -0.548871 1.873253 -9.343242 0.368204 1.593596 0.000272 -0.000045 0.000081 -27.152315 -9.347910 -7.208064 -17.602491 1.165774 -2.959182 -17.272850 -0.600432 -2.198458 -0.001304 0.000012 -0.000003 -34.306892 -26.559227 -10.415483 -21.520802 1.711176 -8.783038 -21.059076 -1.873148 -7.050427 0.000536 0.000003 -0.000042 0.000000 0.000000 0.000000 0.000000 0.000000 0.000000 -1.134171 13.459829 -2.514368 -0.172777 -0.680966 15.073463 -2.849087 5.962295 21.199961 -0.286537 0.735612 -22.078032 0.000000 0.000000 0.000000 0.000000 0.000000 0.000000 0.000000 0.000000 0.000000 5.516007 15.191183 9.951098 0.181632 0.812888 12.197073 -3.442175 18.733852 19.223656 0.410742 -1.128363 -22.497438 0.000000 0.000000 0.000000 0.000000 0.000000 0.000000 0.000000 0.000000 0.000000 
-5.199544 88.894814 4.010996 0.110698 -15.860586 -7.002989 -2.446262 -0.083692 6.233731 -1.679129 -0.018209 5.342223 4.985895 -7.488340 1.734063 3.988894 -2.456039 4.760174 -12.330895 12.104314 0.405667 1.903040 9.783635 -6.209229 -1.674583 -0.033051 -16.575521 0.000000 0.000000 0.000000 84.209785 0.417697 5.217060 78.064034 -13.848419 -15.145328 0.084547 15.892374 38.412334 8.292586 15.539556 -15.152362 13.874708 -1.949199 38.464451 -0.000005 0.000002 -35.142532 -0.000035 0.000033 -24.252535 -0.000006 -0.000005 -0.000000 31.814817 17.429754 -8.728381 23.223059 0.900843 -6.987955 23.470673 1.868441 -6.343638 0.000006 0.000005 -0.000016 34.142876 7.281290 -8.580971 24.424109 -0.211438 -2.886211 24.664700 0.665845 -2.381138 0.000010 -0.000135 0.000021 44.444366 -9.117798 -6.027227 29.298761 0.711418 4.030543 29.100252 -0.967437 3.103303 -0.000002 -0.001595 0.000009 49.359432 -24.570953 -5.334328 29.363167 0.154058 12.105243 29.062304 -3.179922 10.205314 0.000354 0.000022 -0.000027 0.000000 0.000000 0.000000 0.000000 0.000000 0.000000 -80.410828 -2.375679 12.890843 -46.345490 -0.691026 23.578716 -0.802265 -21.565662 97.862991 3.052621 20.583839 -2.856514 -10.193544 1.829618 40.029491 0.000022 0.000024 -24.914373 0.000083 -0.000026 -17.150517 -0.001578 -0.000012 -0.000540 -8.589341 17.665125 -4.905833 -7.515882 0.104796 4.317695 -7.795923 1.073946 3.933994 0.000014 -0.000144 0.000019 -12.415704 7.217009 -6.742610 -9.268553 -0.558758 1.833034 -9.041684 0.358890 1.560375 0.000137 -0.000045 0.000085 -26.386244 -9.368403 -7.402961 -17.240810 1.182474 -2.908773 -16.905014 -0.588551 -2.162501 -0.001319 0.000012 -0.000003 -33.544933 -26.634027 -10.648656 -21.183125 1.754266 -8.646561 -20.708244 -1.837600 -6.940506 0.000501 0.000003 -0.000041 0.000000 0.000000 0.000000 0.000000 0.000000 0.000000 -1.076374 13.237643 -2.480316 -0.169242 -0.678567 15.042056 -2.821642 5.642850 21.252693 -0.292476 0.742827 -22.099163 0.000000 0.000000 0.000000 0.000000 0.000000 0.000000 0.000000 0.000000 0.000000 5.578112 15.050529 9.721365 0.185163 0.822544 12.290819 -3.446837 18.473146 19.434038 0.412510 -1.127312 -22.621120 0.000000 0.000000 0.000000 0.000000 0.000000 0.000000 0.000000 0.000000 0.000000 
-5.268942 88.923729 3.987396 0.103227 -15.417754 -6.938422 -2.460264 -0.099046 6.248308 -1.809377 -0.003052 5.443811 5.121583 -7.756403 1.646337 4.025054 -2.563959 4.803547 -12.455500 12.029155 0.301018 1.860509 9.683712 -6.222290 -1.645108 -0.037156 -16.466394 0.000000 0.000000 0.000000 84.086792 0.420216 5.215034 78.017998 -13.652307 -15.105176 0.088950 16.032049 37.988693 8.259902 15.758919 -15.131739 13.850841 -1.955964 38.462631 -0.000006 0.000002 -35.090637 -0.000035 0.000033 -24.221323 -0.000006 -0.000006 -0.000000 31.621977 17.405895 -8.893063 23.048372 0.868138 -6.900505 23.303888 1.835814 -6.265907 0.000005 0.000005 -0.000015 33.958076 7.266164 -8.725199 24.238428 -0.224916 -2.851860 24.478615 0.655082 -2.352625 0.000010 -0.000132 0.000021 44.231094 -9.100011 -6.138193 29.122637 0.732755 3.981979 28.927332 -0.951445 3.066617 -0.000002 -0.001582 0.000009 49.164406 -24.555946 -5.459888 29.201147 0.216290 11.966071 28.898067 -3.126694 10.091423 0.000354 0.000022 -0.000027 0.000000 0.000000 0.000000 0.000000 0.000000 0.000000 -80.112694 -2.400975 13.142721 -45.225636 1.079910 24.288778 -0.783805 -21.321102 97.140266 2.960710 21.436859 -3.034132 -10.086956 1.819862 40.079208 0.000022 0.000024 -24.638384 0.000090 -0.000025 -16.944921 -0.001521 -0.000013 -0.000623 -7.906689 17.669008 -5.036491 -7.247659 0.078973 4.221162 -7.530836 1.048684 3.850244 0.000013 -0.000279 0.000020 -11.733333 7.220688 -6.879578 -8.979373 -0.568181 1.795740 -8.750368 0.350209 1.529533 0.000024 -0.000045 0.000089 -25.630678 -9.393197 -7.571782 -16.888294 1.198492 -2.861665 -16.547657 -0.577439 -2.128894 -0.001346 0.000011 -0.000003 -32.783092 -26.720341 -10.861269 -20.849098 1.795565 -8.518198 -20.363886 -1.804326 -6.837300 0.000455 0.000002 -0.000041 0.000000 0.000000 0.000000 0.000000 0.000000 0.000000 -1.027987 13.032966 -2.460006 -0.166201 -0.676188 15.036550 -2.794384 5.358877 21.276070 -0.299492 0.751555 -22.111814 0.000000 0.000000 0.000000 0.000000 0.000000 0.000000 0.000000 0.000000 0.000000 5.636024 14.929319 9.490788 0.188559 0.830316 12.423864 -3.453948 18.244030 19.626045 0.412322 -1.125723 -22.733923 0.000000 0.000000 0.000000 0.000000 0.000000 0.000000 0.000000 0.000000 0.000000 
